<svg xmlns="http://www.w3.org/2000/svg" width="126.331" height="85.594" viewBox="0 0 126.331 85.594">
  <g id="chef" transform="translate(0)">
    <path id="Path_211" data-name="Path 211" d="M566.154,48.643c-.589-.387-1.22-.689-1.851-1.033.129-.158.229-.287.33-.416a16.9,16.9,0,0,0,3.66-8.726c0-1.349,0-2.7.014-4.047a22.959,22.959,0,0,0-.488-2.6,19.311,19.311,0,0,0-8.266-10.792,20.464,20.464,0,0,0-13.62-3.631,10.735,10.735,0,0,0-5.454,2.167,12.432,12.432,0,0,0-3.832,4.88,12.987,12.987,0,0,0-5.095-1.607h-3.717a14.5,14.5,0,0,0-10.663,6.1,10.948,10.948,0,0,0-1.909,8.783c.875,4.191,4.219,6.96,8.769,7.348.431.043.7.072.718.631a15.092,15.092,0,0,1-3.344,10.118,8.478,8.478,0,0,1-4.966,3.172c-.388.086-.775.215-1.163.316.043.115.043.158.057.158a1.082,1.082,0,0,0,.187.086,6.929,6.929,0,0,0,5.9-1.162,12.95,12.95,0,0,0,5.08-8.582,46.284,46.284,0,0,0,.373-4.621c1.493-.387,3.057-.789,4.635-1.191-.014-.072-.029-.129-.043-.2a.711.711,0,0,0-.187-.043c-.144.014-.287.029-.431.057a14.282,14.282,0,0,1-7.29-.344c-4.148-1.306-6.372-4.535-5.755-8.625,1.349-8.97,10.821-12.543,17.839-9.113.359.172.4.373.3.732-.158.588-.258,1.206-.373,1.808a12.041,12.041,0,0,0-.086,4.42c.115-.9.23-1.794.344-2.7a30.988,30.988,0,0,1,1.507-4.148,10.8,10.8,0,0,1,9.386-6.214,17.99,17.99,0,0,1,12.385,4.033c5.353,4.176,7.75,9.63,6.429,16.389A16.592,16.592,0,0,1,557.27,51.7c-.488.287-1.019.5-1.636.789.445-.072.8-.115,1.134-.187a13.111,13.111,0,0,0,6.243-3.33c.158-.144.5-.3.646-.23,2.827,1.464,4.894,4.234,3.617,7.922-1.335,3.861-5.439,6.559-9.816,6.688-4.779.129-10.434-3.631-10.218-8.711A10.039,10.039,0,0,0,546.966,57a1.718,1.718,0,0,1-.459,1.277,14.947,14.947,0,0,0-3.258,6.846,10.194,10.194,0,0,0,.33,5.339,19.735,19.735,0,0,1,4.219-10.19,10.315,10.315,0,0,0,3.229,3.6c6.559,4.535,15.313,1.206,18.126-5.611A7.452,7.452,0,0,0,566.154,48.643Z" transform="translate(-443.513 -17.3)" fill="#fff"/>
    <path id="Path_212" data-name="Path 212" d="M483.576,466.33a2.177,2.177,0,0,0,2.54.043c.976-.631,1.952-1.249,2.727-1.737,1.019.918,2.038,1.794,3,2.712a2.419,2.419,0,0,0,2.756.531c2.555-.9,4.133-2.856,5.511-5.052.33-.517.33-.517-.115-.144-.158.129-.316.258-.474.4a5.58,5.58,0,0,1-3.416,1.45,5.265,5.265,0,0,1-3.8-1.823c-.933-.962-1.78-1.98-2.684-3.014-.1.072-.187.143-.287.215-1.521.947-2.971,1.995-4.564,2.8a3.068,3.068,0,0,1-4.018-.689c-.057-.072-.933-1.507-1.148-1.55C480.791,464.149,481.925,465.311,483.576,466.33Z" transform="translate(-413.174 -396.209)" fill="#fff"/>
    <path id="Path_213" data-name="Path 213" d="M520.094,407.7a3.758,3.758,0,0,0,.9-2.655,6.887,6.887,0,0,0-.244-1.033c-.4-1.048-1.249-1.177-1.98-.33a3.782,3.782,0,0,0-.488,3.717A1.035,1.035,0,0,0,520.094,407.7Z" transform="translate(-446.061 -347.755)" fill="#fff"/>
    <path id="Path_214" data-name="Path 214" d="M571.359,414.165c.588-.431.933-.344,1.234.3.158.33.273.689.4,1.033a2.866,2.866,0,0,0,.187-2.526.925.925,0,0,0-1.277-.574,2.639,2.639,0,0,0-1.378,2.454C570.813,414.61,571.072,414.366,571.359,414.165Z" transform="translate(-491.04 -355.625)" fill="#fff"/>
    <path id="Path_215" data-name="Path 215" d="M139.763,249.871m0,0-.258.474-.014.043c-.158.273-.316.531-.474.8-.1.158-.215.316-.316.474a39.26,39.26,0,0,1-11.567,12.141c-8.482,5.841-18.069,8.467-28.186,9.472-2.067.2-4.148.287-6.214.431H86.146c-2.268-.143-4.535-.258-6.8-.416a87.8,87.8,0,0,1-13.519-2.009,1.432,1.432,0,0,1-.8-.588c-1.32-2.153-2.612-4.334-3.918-6.5-.933-1.564-1.88-3.114-2.827-4.693a.255.255,0,0,1,.086-.344c2.282-1.392,4.535-2.727,6.745-4.1a.82.82,0,0,1,1.019.014q8.632,4.994,17.265,9.974a6.361,6.361,0,0,1,1.249.976A18.972,18.972,0,1,0,110.1,237.96a17.875,17.875,0,0,0-8.9-3.975,15.492,15.492,0,0,0-6.028-.014,17.1,17.1,0,0,0-8.008,3.243c-1.277.947-2.425,2.067-3.645,3.157a.252.252,0,0,1-.359-.029,31.839,31.839,0,0,0-11.912-9.529,38.98,38.98,0,0,0-14.71-3.43.252.252,0,0,1-.158-.431,3.134,3.134,0,0,0,.5-4.521,3.367,3.367,0,0,0-4.65-.4,3.077,3.077,0,0,0-1.134,2.8,3.111,3.111,0,0,0,1.277,2.124.245.245,0,0,1-.158.431,39.591,39.591,0,0,0-17.939,4.836,35.232,35.232,0,0,0-12.3,11.252.246.246,0,0,0,.387.3l.014-.014a42.537,42.537,0,0,1,21.944-12.644c2.727-.617,5.554-.789,8.338-1.177l2.626-.043c1.32.129,2.655.187,3.975.359A40.146,40.146,0,0,1,82.371,241.39a.237.237,0,0,1,.043.287c-.976,2.1-1.909,4.1-2.842,6.128a.387.387,0,0,1-.1.115,1.715,1.715,0,0,1-.746.1c-1.277.014-2.54.043-3.818.057H35.9l-10-.043c-.545,0-1.076.014-1.622.043h0c-.718.029-1.421.072-2.138.1l-1.808.086c-.187.014-.387.014-.574.029a6.453,6.453,0,0,0-2.87.6.244.244,0,0,0-.014.431,2.907,2.907,0,0,0,.99.387,53.777,53.777,0,0,0,6.415.7h0c1.45.129,4.176.215,7.649.287.172.014.344.014.517.029h.588c1.249.014,2.6.043,3.99.057l5.5.086c1.048.014,2.081.014,3.129.029a.246.246,0,0,1,.23.158,13.308,13.308,0,0,0,.9,2.124,9.129,9.129,0,0,0,4.377,3.387,11.41,11.41,0,0,0,5.583.89,2.884,2.884,0,0,0-.431.33c-.23.187-.431.33-.646.488a.244.244,0,0,0-.057.33c.789,1.292,1.55,2.526,2.3,3.774l4.98,8.18-.89-.244c-1.162-.33-2.325-.646-3.459-1.033-6.587-2.3-12.7-5.353-17.394-10.735a.257.257,0,0,0-.1-.072c-.072-.029-.129-.043-.2-.072.043.072.086.129.129.2.617.962,1.162,1.981,1.866,2.885a34.286,34.286,0,0,0,13.275,10.089c7.3,3.373,15.083,4.908,23.049,5.6a106.323,106.323,0,0,0,20.049-.115,67.032,67.032,0,0,0,18.47-4.349c7.52-3.057,13.935-7.592,18.628-14.352a31.448,31.448,0,0,0,4.377-8.884l.172-.646s.172-1.349.129-1.292m-86.7-22.173a1.915,1.915,0,0,1-2.167-1.693c.014-.933.962-1.636,2.167-1.607a1.921,1.921,0,0,1,2.081,1.636A1.973,1.973,0,0,1,54.285,225.373Zm40.687,10.434c8.3-1.737,15.284,5.511,15.8,11.682a10.725,10.725,0,0,1-1.478,6.386c-.158.273-.316.531-.474.8-.014.014,0,.043.029.23l1.392-.675c1.076-.56,2.153-1.119,3.243-1.679a4.16,4.16,0,0,1,.746-.258c.847-.23,1.033-.086,1.033.775a17.092,17.092,0,0,1-11.869,15.9,19.918,19.918,0,0,1-4.621.962,15.9,15.9,0,0,1-7.032-1.363c-6.257-2.727-9.9-7.477-10.635-14.294A17.213,17.213,0,0,1,94.972,235.807ZM67.187,250.919c.029-.014.072-.014.1-.029a.907.907,0,0,0-.1.029c1.579-.014,3.157-.014,4.736-.029,2.167-.043,4.334-.072,6.487-.115h0c.273.014.545.014.818.029a19.839,19.839,0,0,0,.588,6.817c.387,1.277.875,2.512,1.349,3.818q-7.492-4.047-15.012-8.109C66.5,252.5,66.843,251.708,67.187,250.919Zm-11.323,5.123a9.423,9.423,0,0,1-6.1-2.3,4.437,4.437,0,0,1-1.607-2.856c5.712.014,11.567,0,16.547-.014A4.09,4.09,0,0,1,63.37,253.5a8.938,8.938,0,0,1-4.908,2.411A13.375,13.375,0,0,1,55.864,256.042Z" transform="translate(-16.748 -192.006)" fill="#fff"/>
  </g>
</svg>
