<svg xmlns="http://www.w3.org/2000/svg" width="111.192" height="117.857" viewBox="0 0 111.192 117.857">
  <g id="bowl-297126" transform="translate(-6.997 -4.826)">
    <path id="Path_205" data-name="Path 205" d="M12.919,64.117h98.429c0,25.1-3.889,41.833-29.529,58.566H42.448C18.221,107.964,12.919,89.217,12.919,64.117h0Z" stroke="#000" fill-rule="evenodd"/>
    <g id="Group_65" data-name="Group 65">
      <path id="Path_206" data-name="Path 206" d="M8,113.1H117.19c-9.448,4.388-9.448,6.945-32.758,8.58H40.755c-23.69-1.34-23.69-4.192-32.758-8.58Z" stroke="#000" stroke-linejoin="round" stroke-width="2" fill-rule="evenodd"/>
      <g id="Group_64" data-name="Group 64">
        <path id="Path_207" data-name="Path 207" d="M42.679,6.1c18.771,25.914-17.34,27.612,0,54.117" fill="#fff" stroke="#000" stroke-linecap="round" stroke-width="2" fill-rule="evenodd"/>
        <path id="Path_208" data-name="Path 208" d="M54.888,5.826c18.771,25.914-17.34,27.612,0,54.117" fill="#fff" stroke="#000" stroke-linecap="round" stroke-width="2" fill-rule="evenodd"/>
        <path id="Path_209" data-name="Path 209" d="M69.06,5.826c18.771,25.914-17.34,27.612,0,54.117" fill="#fff" stroke="#000" stroke-linecap="round" stroke-width="2" fill-rule="evenodd"/>
        <path id="Path_210" data-name="Path 210" d="M81.1,6.291c18.771,25.914-17.34,27.612,0,54.117" fill="#fff" stroke="#000" stroke-linecap="round" stroke-width="2" fill-rule="evenodd"/>
      </g>
    </g>
  </g>
</svg>
